<?xml version="1.0" encoding="UTF-8"?>
<svg id="Artwork" xmlns="http://www.w3.org/2000/svg" version="1.1" viewBox="0 0 576 576">
  <!-- Generator: Adobe Illustrator 29.1.0, SVG Export Plug-In . SVG Version: 2.1.0 Build 142)  -->
  <path d="M239.3,416.7c24.3,0,44-19.9,43.5-44.4-.4-24-21-42.7-45-42.7h-122c-6.3,0-11.4,5.1-11.4,11.3v151.4c0,6.3,5.1,11.4,11.4,11.4h122c24,0,44.5-18.8,45-42.7.5-24.4-19.2-44.3-43.5-44.3h0ZM223.3,470.8h0c-29.9,11-63-4.4-73.9-34.2s4.4-63,34.2-73.9c8.8-3.2,18-4.2,26.7-3.1-1.1.3-2.1.7-3.2,1-26.7,9.8-40.3,39.3-30.6,66,9.8,26.7,39.3,40.3,66,30.6,1.1-.4,2.1-.8,3.1-1.3-6,6.5-13.5,11.7-22.4,14.9h.1ZM471.3,340.5v68.9h-188.4v-68.9c0-6,4.9-10.9,10.9-10.9h63.8c3.6,0,7,1.8,9,4.9l23.6,36.8v-30.8c0-6,4.9-10.9,10.9-10.9h59.5c6,0,10.9,4.9,10.9,10.9h-.2,0ZM282.8,424h188.5v68.9c0,6-4.9,10.9-10.9,10.9h-64c-3.9,0-7.5-2-9.6-5.2l-23.4-36.5v30.8c0,6-4.9,10.9-10.9,10.9h-58.9c-6,0-10.9-4.9-10.9-10.9v-68.9h0Z"/>
  <path d="M447,87.2l31.5,4.2c1.3.2,1.3,2.1,0,2.3l-31.5,4.2c-1.8.3-3.2,1.8-3.6,3.6l-4.2,22.6c-.2,1.3-2,1.3-2.3,0l-4.2-22.6c-.3-1.8-1.8-3.2-3.6-3.6l-31.5-4.2c-1.3-.2-1.3-2.1,0-2.3l31.5-4.2c1.8-.3,3.2-1.8,3.6-3.6l4.2-22.6c.2-1.3,2-1.3,2.3,0l4.2,22.6c.3,1.8,1.8,3.2,3.6,3.6Z"/>
  <path d="M424.6,170.9c-2.5,1.2-3.6,4.2-2.5,6.8,18.6,40.9,6.4,92.3-32.1,117.5-42.5,27.8-110.9,21.6-132.4-20.1,0,0,15.4,12.4,30.4,15.4,16.2,3.3,41.5,5,59-6,22-13.8,40-49.3,23.9-82.6-1.2-2.5-4.2-3.6-6.8-2.4l-23.4,10.6c-1.4.6-2.8-.7-2.2-2.1,4.7-11.6,16.1-47.2-3.4-83.8-2-3.8,1.1-8.2,5.3-7.5,18.8,2.9,59,13.3,88.8,49.7.7.8.4,2.1-.6,2.6l-4.1,2h.1Z"/>
  <path d="M105.1,315h145.8c-20.3-18.1-35.1-42.7-41-71.4-14.6-71,31.1-140.4,102.1-155.1,19-3.9,37.8-3.4,55.5.7-35.6-16.4-76.6-22-117.9-13.5-103,21.2-169.2,121.9-148,224.8,1,4.9,2.2,9.7,3.6,14.5h-.1ZM426,315h44.9c8.3-28.8,10-59.9,3.5-91.2-1.4-7-3.3-13.8-5.4-20.4,4.6,43-12.4,84.2-43,111.7h0Z"/>
</svg>