<?xml version="1.0" encoding="UTF-8"?>
<svg id="Artwork" xmlns="http://www.w3.org/2000/svg" viewBox="0 0 576 576">
  <defs>
    <style>
      .cls-1 {
        fill: #fff;
      }
    </style>
  </defs>
  <rect x="0" width="576" height="576"/>
  <g>
    <path class="cls-1" d="M239.27,416.7c24.31,0,43.97-19.93,43.53-44.35-.44-23.97-21-42.72-44.97-42.72h-122c-6.27,0-11.35,5.08-11.35,11.35v151.44c0,6.27,5.08,11.35,11.35,11.35h122c23.97,0,44.53-18.75,44.97-42.72.45-24.42-19.21-44.35-43.53-44.35ZM223.27,470.76c-29.86,10.95-62.95-4.38-73.9-34.24-10.95-29.86,4.38-62.95,34.24-73.9,8.84-3.24,17.96-4.17,26.71-3.11-1.06.31-2.12.65-3.18,1.04-26.67,9.78-40.35,39.33-30.57,65.99,9.78,26.67,39.33,40.35,65.99,30.57,1.06-.39,2.08-.82,3.1-1.26-5.99,6.47-13.54,11.66-22.39,14.9ZM366.39,334.54l23.63,36.8v-30.84c0-6,4.86-10.86,10.86-10.86h59.52c6,0,10.86,4.86,10.86,10.86v68.91h-188.45v-68.91c0-6,4.86-10.86,10.86-10.86h63.74c3.63,0,7.01,1.85,8.97,4.9ZM386.87,498.54l-23.42-36.48v30.84c0,6-4.86,10.86-10.86,10.86h-58.92c-6,0-10.86-4.86-10.86-10.86v-68.91h188.45v68.91c0,6-4.86,10.86-10.86,10.86h-63.95c-3.87,0-7.48-1.97-9.57-5.23Z"/>
    <path class="cls-1" d="M424.59,170.91c-2.49,1.19-3.61,4.24-2.47,6.75,18.62,40.85,6.44,92.33-32.15,117.51-42.55,27.78-110.91,21.59-132.36-20.14,0,0,15.41,12.4,30.39,15.42,16.22,3.28,41.55,4.96,59-5.97,21.98-13.77,40.05-49.27,23.91-82.57-1.22-2.51-4.24-3.59-6.79-2.44l-23.4,10.6c-1.35.61-2.77-.73-2.21-2.1,4.69-11.56,16.09-47.21-3.35-83.82-1.99-3.75,1.14-8.15,5.34-7.5,18.79,2.93,58.97,13.3,88.76,49.72.68.83.39,2.09-.57,2.55l-4.1,1.97Z"/>
    <path class="cls-1" d="M101.57,300.59c-21.2-102.96,45.08-203.61,148.04-224.82,41.34-8.51,82.3-2.9,117.9,13.51-17.73-4.03-36.54-4.55-55.51-.65-71.01,14.62-116.72,84.04-102.1,155.06,5.91,28.68,20.76,53.23,41.04,71.35H105.14c-1.36-4.73-2.55-9.55-3.56-14.46ZM426.03,315.05h44.85c8.33-28.75,10-59.88,3.55-91.24-1.44-6.99-3.27-13.79-5.42-20.42,4.6,42.98-12.35,84.18-42.98,111.65Z"/>
  </g>
</svg>